{"title":"Catch Me If You Can [2002] BRRip XviD - CODY","uid":7880619,"size":1393279470,"categoryP":"video","categoryS":"movies","magnet":"?xt=urn:btih:5b8413e4a900bca28601ee988498e502fc31eac3&amp;dn=Catch+Me+If+You+Can+%5B2002%5D+BRRip+XviD+-+CODY&amp;tr=udp%3A%2F%2Ftracker.openbittorrent.com%3A80&amp;tr=udp%3A%2F%2Fopen.demonii.com%3A1337&amp;tr=udp%3A%2F%2Ftracker.coppersurfer.tk%3A6969&amp;tr=udp%3A%2F%2Fexodus.desync.com%3A6969","seeders":0,"leechers":1,"uploader":"CODYBOSS1969","files":15,"time":1354483448,"description":"General\nComplete name                            : Catch Me If You Can [2002] BRRip XviD - CODY.avi\nFormat                                   : AVI\nFormat/Info                              : Audio Video Interleave\nFile size                                : 1.30 GiB\nDuration                                 : 2h 20mn\nOverall bit rate                         : 1 318 Kbps\nWriting application                      : VirtualDubMod 1.5.10.3 | www.virtualdub-fr.org || (build 2550/release)\nWriting library                          : VirtualDubMod build 2550/release\n\nVideo\nID                                       : 0\nFormat                                   : MPEG-4 Visual\nFormat profile                           : Advanced Simple@L5\nFormat settings, BVOP                    : 4\nFormat settings, QPel                    : No\nFormat settings, GMC                     : No warppoints\nFormat settings, Matrix                  : Default (H.263)\nMuxing mode                              : Packed bitstream\nCodec ID                                 : XVID\nCodec ID/Hint                            : XviD\nDuration                                 : 2h 20mn\nBit rate                                 : 1 181 Kbps\nWidth                                    : 720 pixels\nHeight                                   : 392 pixels\nDisplay aspect ratio                     : 16:9\nFrame rate                               : 23.976 fps\nColor space                              : YUV\nChroma subsampling                       : 4:2:0\nBit depth                                : 8 bits\nScan type                                : Progressive\nCompression mode                         : Lossy\nBits/(Pixel*Frame)                       : 0.175\nStream size                              : 1.16 GiB (90%)\nWriting library                          : XviD 65\n\nAudio\nID                                       : 1\nFormat                                   : MPEG Audio\nFormat version                           : Version 1\nFormat profile                           : Layer 3\nCodec ID                                 : 55\nCodec ID/Hint                            : MP3\nDuration                                 : 2h 20mn\nBit rate mode                            : Constant\nBit rate                                 : 128 Kbps\nChannel(s)                               : 2 channels\nSampling rate                            : 48.0 KHz\nCompression mode                         : Lossy\nStream size                              : 129 MiB (10%)\nAlignment                                : Aligned on interleaves\nInterleave, duration                     : 42 ms (1.00 video frame)\nInterleave, preload duration             : 504 ms\nWriting library                          : LAME3.99r\nEncoding settings                        : -m s -V 4 -q 2 -lowpass 17 -b 128\n\nAudio language                           : English\n\nIMDB link                                 &lt;a href=&quot; http://www.imdb.com/title/tt0264464/&quot; rel=&quot;nofollow&quot; target=&quot;_NEW&quot;&gt; http://www.imdb.com/title/tt0264464/&lt;/a&gt;\n\nSubtitles included                       : Danish, Dutch, English [incl. Hearing-\n                                           Impaired], Finnish, French, German, \n                                           Hungarian, Portuguese, Romanian, \n                                           Spanish, Swedish\n\nPlease seed at least 1,5:1. This way this torrent has a chance to survive!\n\nThanks. Enjoy !!!\t\t\t\t\t\t","torrent":{"xt":"urn:btih:5b8413e4a900bca28601ee988498e502fc31eac3","amp;dn":"Catch+Me+If+You+Can+%5B2002%5D+BRRip+XviD+-+CODY","amp;tr":["udp%3A%2F%2Ftracker.openbittorrent.com%3A80","udp%3A%2F%2Fopen.demonii.com%3A1337","udp%3A%2F%2Ftracker.coppersurfer.tk%3A6969","udp%3A%2F%2Fexodus.desync.com%3A6969"],"infoHash":"5b8413e4a900bca28601ee988498e502fc31eac3","infoHashBuffer":{"type":"Buffer","data":[91,132,19,228,169,0,188,162,134,1,238,152,132,152,229,2,252,49,234,195]},"announce":[],"urlList":[]}}